<?xml version="1.0" encoding="UTF-8" standalone="no"?>
<svg viewBox="0 0 400 400" data-background-color="#8abe53" preserveAspectRatio="xMidYMid meet" height="400" width="400" xmlns="http://www.w3.org/2000/svg" xmlns:xlink="http://www.w3.org/1999/xlink">
    <rect width="400" height="400" x="0" y="0" opacity="1" fill="#8abe53" data-fill-palette-color="background" id="background">
    </rect>
    <!-- <g id="tight-bounds" transform="matrix(1,0,0,1,160,20)"> -->
    <g id="tight-bounds" transform="matrix(1,0,0,1,40,20)">
        <svg viewBox="0 0 320 360" height="360" width="320">
            <g>
                <svg viewBox="0 0 320 360" height="360" width="320">
                    <g>
                        <path xmlns="http://www.w3.org/2000/svg" 
                            d="M160 340c88.258 0 160-71.742 160-160 0-88.258-71.742-160-160-160-88.258 0-160 71.742-160 160 0 88.258 71.742 160 160 160zM165.161 329.368v-10.323c72.671-2.684 131.2-61.213 133.884-133.884h10.323c-2.684 78.452-65.755 141.523-144.207 144.207zM165.161 30.632c78.452 2.684 141.523 65.755 144.207 144.207h-10.323c-2.684-72.671-61.213-131.2-133.884-133.884zM289.032 180c0 71.123-57.91 129.032-129.032 129.032-71.123 0-129.032-57.91-129.032-129.032 0-71.123 57.91-129.032 129.032-129.032 71.123 0 129.032 57.91 129.032 129.032zM154.839 30.632v10.323c-72.671 2.684-131.2 61.213-133.884 133.884h-10.323c2.684-78.452 65.755-141.523 144.207-144.207zM20.955 185.161c2.684 72.671 61.213 131.2 133.884 133.884v10.323c-78.452-2.684-141.523-65.755-144.207-144.207z" fill="#ffffff" fill-rule="nonzero" stroke="none" stroke-width="1" stroke-linecap="butt" stroke-linejoin="miter" stroke-miterlimit="10" stroke-dasharray="" stroke-dashoffset="0" font-family="none" font-weight="none" font-size="none" text-anchor="none" style="mix-blend-mode: normal" data-fill-palette-color="tertiary">
                        </path>
                    </g>
                    <g transform="matrix(1,0,0,1,64,171.23886733453008)">
                        <svg viewBox="0 0 192 17.522265330939835" height="17.522265330939835" width="192">
                            <g>
                                <svg viewBox="0 0 192 17.522265330939835" height="17.522265330939835" width="192">
                                    <g>
                                        <svg viewBox="0 0 192 17.522265330939835" height="17.522265330939835" width="192">
                                            <g id="textblocktransform">
                                                <svg viewBox="0 0 192 17.522265330939835" height="17.522265330939835" width="192" id="textblock">
                                                    <g>
                                                        <svg viewBox="0 0 192 17.522265330939835" height="17.522265330939835" width="192">
                                                            <g transform="matrix(1,0,0,1,0,0)">
                                                                <svg width="192" viewBox="3.490000009536743 -37.7400016784668 421.58001708984375 38.470001220703125" height="17.522265330939835" data-palette-color="#ffffff">
                                                                    <path d="M3.49 0L3.49-4.2 7.01-4.2 7.01-32.35 3.49-32.35 3.49-37.01 15.21-37.01 26.95-5.05 38.84-37.01 49.95-37.01 49.95-32.35 46.46-32.35 46.46-4.2 49.95-4.2 49.95 0 37.94 0 37.94-4.2 41.89-4.2 41.89-32.62 28.96 0 24.8 0 11.69-32.69 11.69-4.2 15.5-4.2 15.5 0 3.49 0ZM56.93-32.79L56.93-37.01 68.75-37.01 68.75-32.79 65.23-32.79 65.23-4.2 68.75-4.2 68.75 0 56.93 0 56.93-4.2 60.45-4.2 60.45-32.79 56.93-32.79ZM107.25-27.25L102-27.25Q100.36-30.03 97.66-31.62 94.97-33.2 91.65-33.2L91.65-33.2Q88.81-33.2 86.47-32.01 84.13-30.81 82.45-28.8 80.78-26.78 79.85-24.13 78.93-21.48 78.93-18.55L78.93-18.55Q78.93-15.09 79.95-12.41 80.98-9.74 82.62-7.97 84.27-6.2 86.54-5.02 88.81-3.83 91.65-3.83L91.65-3.83Q95.5-3.83 98.36-5.7 101.22-7.57 103.24-11.84L103.24-11.84 107.54-9.81Q106.61-7.18 104.39-4.72 102.17-2.27 98.91-0.77 95.65 0.73 91.69 0.73L91.69 0.73Q87.91 0.73 84.74-0.7 81.56-2.12 79.08-4.76 76.61-7.4 75.3-11.01 73.99-14.62 73.99-18.55L73.99-18.55Q73.99-22.51 75.3-26.03 76.61-29.54 78.96-32.14 81.32-34.74 84.58-36.24 87.84-37.74 91.65-37.74L91.65-37.74Q95.04-37.74 97.5-36.78 99.97-35.82 101.69-34.48 103.41-33.15 104.66-31.59L104.66-31.59 107.25-31.59 107.25-27.25ZM138.57-32.81L138.57-37.01 150.58-37.01 150.58-32.81 147.06-32.81 147.06-4.2 150.58-4.2 150.58 0 138.57 0 138.57-4.2 142.28-4.2 142.28-17.5 120.87-17.5 120.87-4.2 124.58-4.2 124.58 0 112.57 0 112.57-4.2 116.08-4.2 116.08-32.81 112.57-32.81 112.57-37.01 124.58-37.01 124.58-32.81 120.87-32.81 120.87-21.61 142.28-21.61 142.28-32.81 138.57-32.81ZM179.46 0L179.46-4.2 182.53-4.2 179.6-12.6 165.37-12.6 162.51-4.2 166.32-4.2 166.32 0 154.31 0 154.31-4.2 157.53-4.2 169.06-37.01 176.26-37.01 187.76-4.2 191.47-4.2 191.47 0 179.46 0ZM172.43-33.2L166.76-16.65 178.19-16.65 172.43-33.2ZM195.2-32.79L195.2-37.01 207.21-37.01 207.21-32.79 203.5-32.79 203.5-4.2 216.27-4.2Q216.66-4.2 217.05-4.38 217.44-4.57 217.76-4.86 218.08-5.15 218.27-5.53 218.47-5.91 218.47-6.3L218.47-6.3 218.47-10.96 223.11-10.96 223.11 0 195.2 0 195.2-4.2 198.72-4.2 198.72-32.79 195.2-32.79ZM258.36-27.25L253.11-27.25Q251.47-30.03 248.78-31.62 246.08-33.2 242.76-33.2L242.76-33.2Q239.93-33.2 237.58-32.01 235.24-30.81 233.57-28.8 231.89-26.78 230.97-24.13 230.04-21.48 230.04-18.55L230.04-18.55Q230.04-15.09 231.06-12.41 232.09-9.74 233.74-7.97 235.39-6.2 237.66-5.02 239.93-3.83 242.76-3.83L242.76-3.83Q246.62-3.83 249.47-5.7 252.33-7.57 254.36-11.84L254.36-11.84 258.65-9.81Q257.72-7.18 255.5-4.72 253.28-2.27 250.02-0.77 246.76 0.73 242.81 0.73L242.81 0.73Q239.02 0.73 235.85-0.7 232.68-2.12 230.2-4.76 227.72-7.4 226.41-11.01 225.11-14.62 225.11-18.55L225.11-18.55Q225.11-22.51 226.41-26.03 227.72-29.54 230.08-32.14 232.43-34.74 235.69-36.24 238.95-37.74 242.76-37.74L242.76-37.74Q246.15-37.74 248.62-36.78 251.08-35.82 252.8-34.48 254.53-33.15 255.77-31.59L255.77-31.59 258.36-31.59 258.36-27.25ZM288.58-37.01L288.58-31.54 266.29-4.2 283.65-4.2 283.65-10.35 288.43-10.35 288.43 0 261.43 0 261.43-5.54 283.41-32.79 266.63-32.79 266.63-26.54 261.85-26.54 261.85-37.01 288.58-37.01ZM291.07-32.79L291.07-37.01 303.08-37.01 303.08-32.79 299.56-32.79 306.52-20.9 313.97-32.79 310.11-32.79 310.11-37.01 322.12-37.01 322.12-32.79 318.97-32.79 308.57-17.02 308.57-4.2 312.38-4.2 312.38 0 300.37 0 300.37-4.2 303.76-4.2 303.76-17.14 293.95-32.79 291.07-32.79ZM334.72-18.9L350.88-32.79 350.88-37.01 359.38-37.01 359.38-32.79 356.47-32.79 340.26-19.14 355.42-4.2 359.38-4.2 359.38 0 349.42 0 349.42-4.2 334.72-18.9ZM326.42-32.79L326.42-37.01 338.43-37.01 338.43-32.79 334.67-32.79 334.67-4.2 338.38-4.2 338.38 0 326.37 0 326.37-4.2 329.88-4.2 329.88-32.79 326.42-32.79ZM363.48-2.95L363.48-2.95Q363.48-3.59 363.73-4.16 363.99-4.74 364.43-5.16 364.87-5.59 365.44-5.85 366.02-6.1 366.67-6.1L366.67-6.1Q367.31-6.1 367.88-5.85 368.46-5.59 368.88-5.16 369.31-4.74 369.57-4.16 369.82-3.59 369.82-2.95L369.82-2.95Q369.82-2.29 369.57-1.71 369.31-1.12 368.88-0.67 368.46-0.22 367.88 0.04 367.31 0.29 366.67 0.29L366.67 0.29Q366.02 0.29 365.44 0.04 364.87-0.22 364.43-0.67 363.99-1.12 363.73-1.71 363.48-2.29 363.48-2.95ZM375.75-32.79L375.75-37.01 387.57-37.01 387.57-32.79 384.05-32.79 384.05-4.2 387.57-4.2 387.57 0 375.75 0 375.75-4.2 379.27-4.2 379.27-32.79 375.75-32.79ZM402.12 0L402.12-4.2 405.51-4.2 405.51-33.01 397.06-33.01 397.06-27.25 392.06-27.25 392.06-37.01 425.07-37.01 425.07-27.25 420.06-27.25 420.06-33.01 410.3-33.01 410.3-4.2 414.11-4.2 414.11 0 402.12 0Z" opacity="1" transform="matrix(1,0,0,1,0,0)" fill="#ffffff" class="undefined-text-0" data-fill-palette-color="primary" id="text-0">
                                                                    </path>
                                                                </svg>
                                                            </g>
                                                        </svg>
                                                    </g>
                                                </svg>
                                            </g>
                                        </svg>
                                    </g>
                                </svg>
                            </g>
                        </svg>
                    </g>
                </svg>
            </g>
        </svg>
    </g>
</svg>